<svg xmlns="http://www.w3.org/2000/svg" xmlns:xlink="http://www.w3.org/1999/xlink" width="180" zoomAndPan="magnify" viewBox="0 0 135 30.000001" height="40" preserveAspectRatio="xMidYMid meet" version="1.0"><defs><g/><clipPath id="96fed636ce"><path d="M 7 6 L 39 6 L 39 29.03125 L 7 29.03125 Z M 7 6 " clip-rule="nonzero"/></clipPath><clipPath id="f3a3aca2dc"><path d="M 2.175781 4 L 41 4 L 41 29.03125 L 2.175781 29.03125 Z M 2.175781 4 " clip-rule="nonzero"/></clipPath><clipPath id="f87ed94da7"><path d="M 2.175781 0 L 32 0 L 32 25 L 2.175781 25 Z M 2.175781 0 " clip-rule="nonzero"/></clipPath></defs><g clip-path="url(#96fed636ce)"><path stroke-linecap="butt" transform="matrix(0.665631, -0.289362, 0.289362, 0.665631, 18.764563, 21.337058)" fill="none" stroke-linejoin="miter" d="M 1.352636 0.645016 C 4.69851 7.662857 8.036921 7.664607 11.382031 0.644685 " stroke="#c23331" stroke-width="3" stroke-opacity="1" stroke-miterlimit="4"/></g><g clip-path="url(#f3a3aca2dc)"><path stroke-linecap="round" transform="matrix(0.725677, 0.0136867, -0.0136867, 0.725677, 8.819587, 15.634973)" fill="none" stroke-linejoin="miter" d="M 2.189162 2.141192 C 10.223124 9.418071 18.259272 9.390311 26.292327 2.063396 " stroke="#c23331" stroke-width="3" stroke-opacity="1" stroke-miterlimit="4"/></g><g clip-path="url(#f87ed94da7)"><path stroke-linecap="round" transform="matrix(0.723634, -0.056112, 0.056112, 0.723634, 8.543424, 3.634602)" fill="none" stroke-linejoin="miter" d="M 1.841187 12.377789 C 5.690614 -2.179291 9.540545 -2.123674 13.391396 12.539273 " stroke="#c23331" stroke-width="3" stroke-opacity="1" stroke-miterlimit="4"/></g><path stroke-linecap="round" transform="matrix(0.725751, -0.00893555, 0.00893555, 0.725751, 17.887042, 3.086118)" fill="none" stroke-linejoin="miter" d="M 1.858585 12.068339 C 5.886488 -2.075332 9.857995 -2.021052 13.783937 12.22593 " stroke="#c23331" stroke-width="3" stroke-opacity="1" stroke-miterlimit="4"/><g fill="#fff9ec" fill-opacity="1"><g transform="translate(36.379224, 22.306651)"><g><path d="M 5.109375 -11 C 5.859375 -12.144531 6.765625 -12.71875 7.828125 -12.71875 C 9.460938 -12.71875 10.679688 -12.019531 11.484375 -10.625 C 11.660156 -10.863281 11.875 -11.113281 12.125 -11.375 C 12.375 -11.644531 12.769531 -11.9375 13.3125 -12.25 C 13.863281 -12.5625 14.425781 -12.71875 15 -12.71875 C 16.28125 -12.71875 17.351562 -12.222656 18.21875 -11.234375 C 19.09375 -10.242188 19.53125 -8.609375 19.53125 -6.328125 L 19.53125 -2.125 C 19.53125 -1.75 19.515625 -1.46875 19.484375 -1.28125 C 19.460938 -1.101562 19.390625 -0.894531 19.265625 -0.65625 C 19.054688 -0.21875 18.4375 0 17.40625 0 C 16.394531 0 15.773438 -0.222656 15.546875 -0.671875 C 15.441406 -0.910156 15.375 -1.125 15.34375 -1.3125 C 15.320312 -1.5 15.3125 -1.773438 15.3125 -2.140625 L 15.3125 -6.359375 C 15.3125 -7.753906 14.816406 -8.453125 13.828125 -8.453125 C 13.265625 -8.453125 12.878906 -8.265625 12.671875 -7.890625 C 12.472656 -7.523438 12.375 -7.003906 12.375 -6.328125 L 12.375 -2.125 C 12.375 -1.738281 12.359375 -1.457031 12.328125 -1.28125 C 12.304688 -1.101562 12.234375 -0.894531 12.109375 -0.65625 C 11.890625 -0.21875 11.265625 0 10.234375 0 C 9.222656 0 8.601562 -0.222656 8.375 -0.671875 C 8.257812 -0.910156 8.191406 -1.125 8.171875 -1.3125 C 8.148438 -1.5 8.140625 -1.773438 8.140625 -2.140625 L 8.140625 -6.359375 C 8.140625 -7.753906 7.640625 -8.453125 6.640625 -8.453125 C 5.679688 -8.453125 5.203125 -7.753906 5.203125 -6.359375 L 5.203125 -2.09375 C 5.203125 -1.726562 5.1875 -1.453125 5.15625 -1.265625 C 5.132812 -1.078125 5.0625 -0.863281 4.9375 -0.625 C 4.695312 -0.207031 4.070312 0 3.0625 0 C 2.050781 0 1.429688 -0.21875 1.203125 -0.65625 C 1.085938 -0.894531 1.019531 -1.101562 1 -1.28125 C 0.976562 -1.457031 0.96875 -1.738281 0.96875 -2.125 L 0.96875 -10.59375 C 0.96875 -10.957031 0.976562 -11.234375 1 -11.421875 C 1.019531 -11.609375 1.097656 -11.816406 1.234375 -12.046875 C 1.472656 -12.472656 2.039062 -12.6875 2.9375 -12.6875 C 3.832031 -12.6875 4.414062 -12.539062 4.6875 -12.25 C 4.96875 -11.96875 5.109375 -11.550781 5.109375 -11 Z M 5.109375 -11 "/></g></g></g><g fill="#fff9ec" fill-opacity="1"><g transform="translate(56.868217, 22.306651)"><g><path d="M 6.59375 -0.046875 C 4.976562 -0.046875 3.632812 -0.660156 2.5625 -1.890625 C 1.5 -3.117188 0.96875 -4.613281 0.96875 -6.375 L 0.96875 -10.59375 C 0.96875 -10.976562 0.976562 -11.257812 1 -11.4375 C 1.019531 -11.613281 1.085938 -11.820312 1.203125 -12.0625 C 1.429688 -12.5 2.054688 -12.71875 3.078125 -12.71875 C 4.203125 -12.71875 4.863281 -12.410156 5.0625 -11.796875 C 5.15625 -11.535156 5.203125 -11.125 5.203125 -10.5625 L 5.203125 -6.359375 C 5.203125 -5.703125 5.390625 -5.1875 5.765625 -4.8125 C 6.140625 -4.445312 6.644531 -4.265625 7.28125 -4.265625 C 7.914062 -4.265625 8.429688 -4.457031 8.828125 -4.84375 C 9.222656 -5.226562 9.421875 -5.734375 9.421875 -6.359375 L 9.421875 -10.625 C 9.421875 -10.988281 9.429688 -11.257812 9.453125 -11.4375 C 9.472656 -11.625 9.546875 -11.84375 9.671875 -12.09375 C 9.890625 -12.507812 10.507812 -12.71875 11.53125 -12.71875 C 12.539062 -12.71875 13.160156 -12.5 13.390625 -12.0625 C 13.503906 -11.820312 13.570312 -11.609375 13.59375 -11.421875 C 13.613281 -11.234375 13.625 -10.957031 13.625 -10.59375 L 13.625 -2.078125 C 13.625 -1.722656 13.613281 -1.453125 13.59375 -1.265625 C 13.570312 -1.078125 13.492188 -0.875 13.359375 -0.65625 C 13.117188 -0.238281 12.503906 -0.03125 11.515625 -0.03125 C 10.535156 -0.03125 9.929688 -0.222656 9.703125 -0.609375 C 9.546875 -0.878906 9.46875 -1.207031 9.46875 -1.59375 C 9.394531 -1.476562 9.242188 -1.316406 9.015625 -1.109375 C 8.796875 -0.898438 8.582031 -0.722656 8.375 -0.578125 C 7.832031 -0.222656 7.238281 -0.046875 6.59375 -0.046875 Z M 6.59375 -0.046875 "/></g></g></g><g fill="#fff9ec" fill-opacity="1"><g transform="translate(71.458504, 22.306651)"><g><path d="M 8.015625 -12.6875 C 9.617188 -12.6875 10.953125 -12.070312 12.015625 -10.84375 C 13.085938 -9.613281 13.625 -8.117188 13.625 -6.359375 L 13.625 -2.125 C 13.625 -1.75 13.613281 -1.46875 13.59375 -1.28125 C 13.570312 -1.101562 13.503906 -0.898438 13.390625 -0.671875 C 13.160156 -0.242188 12.535156 -0.03125 11.515625 -0.03125 C 10.367188 -0.03125 9.707031 -0.328125 9.53125 -0.921875 C 9.4375 -1.191406 9.390625 -1.597656 9.390625 -2.140625 L 9.390625 -6.375 C 9.390625 -7.039062 9.203125 -7.554688 8.828125 -7.921875 C 8.453125 -8.285156 7.945312 -8.46875 7.3125 -8.46875 C 6.675781 -8.46875 6.160156 -8.273438 5.765625 -7.890625 C 5.367188 -7.503906 5.171875 -7 5.171875 -6.375 L 5.171875 -2.125 C 5.171875 -1.75 5.160156 -1.46875 5.140625 -1.28125 C 5.117188 -1.101562 5.039062 -0.898438 4.90625 -0.671875 C 4.695312 -0.242188 4.082031 -0.03125 3.0625 -0.03125 C 2.050781 -0.03125 1.429688 -0.242188 1.203125 -0.671875 C 1.085938 -0.910156 1.019531 -1.125 1 -1.3125 C 0.976562 -1.5 0.96875 -1.773438 0.96875 -2.140625 L 0.96875 -10.671875 C 0.96875 -11.023438 0.976562 -11.289062 1 -11.46875 C 1.019531 -11.65625 1.097656 -11.863281 1.234375 -12.09375 C 1.453125 -12.488281 2.066406 -12.6875 3.078125 -12.6875 C 4.054688 -12.6875 4.660156 -12.503906 4.890625 -12.140625 C 5.046875 -11.859375 5.125 -11.523438 5.125 -11.140625 C 5.1875 -11.253906 5.332031 -11.414062 5.5625 -11.625 C 5.789062 -11.832031 6.007812 -12.003906 6.21875 -12.140625 C 6.757812 -12.503906 7.359375 -12.6875 8.015625 -12.6875 Z M 8.015625 -12.6875 "/></g></g></g><g fill="#fff9ec" fill-opacity="1"><g transform="translate(86.04879, 22.306651)"><g><path d="M 4.9375 -6.34375 C 4.9375 -5.664062 5.160156 -5.132812 5.609375 -4.75 C 6.054688 -4.375 6.53125 -4.1875 7.03125 -4.1875 C 7.539062 -4.1875 8.015625 -4.332031 8.453125 -4.625 C 8.898438 -4.925781 9.257812 -5.078125 9.53125 -5.078125 C 10.007812 -5.078125 10.597656 -4.648438 11.296875 -3.796875 C 11.660156 -3.335938 11.84375 -2.921875 11.84375 -2.546875 C 11.84375 -1.941406 11.398438 -1.375 10.515625 -0.84375 C 9.609375 -0.195312 8.488281 0.125 7.15625 0.125 C 5.65625 0.125 4.21875 -0.414062 2.84375 -1.5 C 2.1875 -2.007812 1.648438 -2.691406 1.234375 -3.546875 C 0.816406 -4.410156 0.609375 -5.359375 0.609375 -6.390625 C 0.609375 -7.429688 0.816406 -8.367188 1.234375 -9.203125 C 1.648438 -10.046875 2.1875 -10.726562 2.84375 -11.25 C 4.175781 -12.300781 5.597656 -12.828125 7.109375 -12.828125 C 7.710938 -12.828125 8.300781 -12.742188 8.875 -12.578125 C 9.457031 -12.410156 9.882812 -12.25 10.15625 -12.09375 L 10.546875 -11.84375 C 10.835938 -11.65625 11.0625 -11.503906 11.21875 -11.390625 C 11.632812 -11.066406 11.84375 -10.695312 11.84375 -10.28125 C 11.84375 -9.875 11.675781 -9.414062 11.34375 -8.90625 C 10.757812 -8.019531 10.203125 -7.578125 9.671875 -7.578125 C 9.367188 -7.578125 8.9375 -7.753906 8.375 -8.109375 C 8.09375 -8.390625 7.679688 -8.53125 7.140625 -8.53125 C 6.597656 -8.53125 6.09375 -8.335938 5.625 -7.953125 C 5.164062 -7.566406 4.9375 -7.03125 4.9375 -6.34375 Z M 4.9375 -6.34375 "/></g></g></g><g fill="#fff9ec" fill-opacity="1"><g transform="translate(98.496278, 22.306651)"><g><path d="M 8 -12.640625 C 9.601562 -12.640625 10.9375 -12.03125 12 -10.8125 C 13.070312 -9.59375 13.609375 -8.097656 13.609375 -6.328125 L 13.609375 -2.09375 C 13.609375 -1.726562 13.59375 -1.453125 13.5625 -1.265625 C 13.539062 -1.078125 13.46875 -0.863281 13.34375 -0.625 C 13.132812 -0.207031 12.515625 0 11.484375 0 C 10.503906 0 9.894531 -0.207031 9.65625 -0.625 C 9.53125 -0.863281 9.453125 -1.078125 9.421875 -1.265625 C 9.398438 -1.460938 9.390625 -1.753906 9.390625 -2.140625 L 9.390625 -6.359375 C 9.390625 -7.015625 9.203125 -7.523438 8.828125 -7.890625 C 8.460938 -8.265625 7.992188 -8.453125 7.421875 -8.453125 C 6.859375 -8.453125 6.359375 -8.28125 5.921875 -7.9375 C 5.484375 -7.59375 5.234375 -7.203125 5.171875 -6.765625 L 5.171875 -2.09375 C 5.171875 -1.726562 5.160156 -1.453125 5.140625 -1.265625 C 5.117188 -1.078125 5.039062 -0.863281 4.90625 -0.625 C 4.695312 -0.207031 4.082031 0 3.0625 0 C 2.050781 0 1.429688 -0.21875 1.203125 -0.65625 C 1.085938 -0.894531 1.019531 -1.101562 1 -1.28125 C 0.976562 -1.457031 0.96875 -1.738281 0.96875 -2.125 L 0.96875 -16.515625 C 0.96875 -16.890625 0.976562 -17.164062 1 -17.34375 C 1.019531 -17.53125 1.085938 -17.738281 1.203125 -17.96875 C 1.429688 -18.394531 2.054688 -18.609375 3.078125 -18.609375 C 4.085938 -18.609375 4.695312 -18.394531 4.90625 -17.96875 C 5.039062 -17.71875 5.117188 -17.5 5.140625 -17.3125 C 5.160156 -17.132812 5.171875 -16.863281 5.171875 -16.5 L 5.171875 -11.171875 C 5.972656 -12.148438 6.914062 -12.640625 8 -12.640625 Z M 8 -12.640625 "/></g></g></g><g fill="#fff9ec" fill-opacity="1"><g transform="translate(113.062488, 22.306651)"><g><path d="M 9.578125 -12.546875 C 9.890625 -12.453125 10.144531 -12.285156 10.34375 -12.046875 C 10.539062 -11.816406 10.640625 -11.441406 10.640625 -10.921875 C 10.640625 -10.410156 10.488281 -9.847656 10.1875 -9.234375 C 9.882812 -8.628906 9.441406 -8.328125 8.859375 -8.328125 C 8.566406 -8.328125 8.285156 -8.390625 8.015625 -8.515625 C 7.753906 -8.648438 7.40625 -8.71875 6.96875 -8.71875 C 6.539062 -8.71875 6.140625 -8.5625 5.765625 -8.25 C 5.390625 -7.945312 5.203125 -7.582031 5.203125 -7.15625 L 5.203125 -2.09375 C 5.203125 -1.726562 5.1875 -1.453125 5.15625 -1.265625 C 5.132812 -1.078125 5.0625 -0.863281 4.9375 -0.625 C 4.695312 -0.207031 4.070312 0 3.0625 0 C 2.289062 0 1.734375 -0.132812 1.390625 -0.40625 C 1.140625 -0.632812 1 -0.976562 0.96875 -1.4375 C 0.96875 -1.601562 0.96875 -1.835938 0.96875 -2.140625 L 0.96875 -10.59375 C 0.96875 -10.957031 0.976562 -11.234375 1 -11.421875 C 1.019531 -11.609375 1.085938 -11.816406 1.203125 -12.046875 C 1.429688 -12.472656 2.054688 -12.6875 3.078125 -12.6875 C 4.046875 -12.6875 4.648438 -12.503906 4.890625 -12.140625 C 5.066406 -11.878906 5.15625 -11.613281 5.15625 -11.34375 C 5.226562 -11.457031 5.34375 -11.59375 5.5 -11.75 C 5.65625 -11.90625 5.976562 -12.117188 6.46875 -12.390625 C 6.96875 -12.671875 7.40625 -12.8125 7.78125 -12.8125 C 8.164062 -12.8125 8.484375 -12.789062 8.734375 -12.75 C 8.992188 -12.707031 9.273438 -12.640625 9.578125 -12.546875 Z M 9.578125 -12.546875 "/></g></g></g></svg>