<svg xmlns="http://www.w3.org/2000/svg" xmlns:xlink="http://www.w3.org/1999/xlink" width="48" zoomAndPan="magnify" viewBox="0 0 36 36.000001" height="48" preserveAspectRatio="xMidYMid meet" version="1.0"><defs><clipPath id="88481aaba5"><path d="M 2 8 L 35.511719 8 L 35.511719 35.027344 L 2 35.027344 Z M 2 8 " clip-rule="nonzero"/></clipPath><clipPath id="c2bafba62b"><path d="M 0.488281 6 L 35.511719 6 L 35.511719 35.027344 L 0.488281 35.027344 Z M 0.488281 6 " clip-rule="nonzero"/></clipPath><clipPath id="95c5c2eb1a"><path d="M 0.488281 0 L 35 0 L 35 33 L 0.488281 33 Z M 0.488281 0 " clip-rule="nonzero"/></clipPath><clipPath id="dea5f53180"><path d="M 1 0 L 35.511719 0 L 35.511719 32 L 1 32 Z M 1 0 " clip-rule="nonzero"/></clipPath></defs><g clip-path="url(#88481aaba5)"><path stroke-linecap="butt" transform="matrix(0.669229, -0.290926, 0.290926, 0.669229, 17.822557, 29.01128)" fill="none" stroke-linejoin="miter" d="M 1.805237 0.861305 C 6.824816 11.401904 11.844889 11.401203 16.865455 0.859204 " stroke="#c23331" stroke-width="4" stroke-opacity="1" stroke-miterlimit="4"/></g><g clip-path="url(#c2bafba62b)"><path stroke-linecap="round" transform="matrix(0.7296, 0.0137607, -0.0137607, 0.7296, 2.746958, 20.529216)" fill="none" stroke-linejoin="miter" d="M 2.89532 2.83932 C 15.093786 14.023895 27.289608 13.997325 39.488037 2.754159 " stroke="#c23331" stroke-width="4" stroke-opacity="1" stroke-miterlimit="4"/></g><g clip-path="url(#95c5c2eb1a)"><path stroke-linecap="round" transform="matrix(0.727546, -0.0564153, 0.0564153, 0.727546, 2.395527, 2.44252)" fill="none" stroke-linejoin="miter" d="M 2.455594 18.583343 C 8.276149 -3.579878 14.097406 -3.525798 19.919363 18.745582 " stroke="#c23331" stroke-width="4" stroke-opacity="1" stroke-miterlimit="4"/></g><g clip-path="url(#dea5f53180)"><path stroke-linecap="round" transform="matrix(0.729674, -0.00898385, 0.00898385, 0.729674, 16.494267, 1.626282)" fill="none" stroke-linejoin="miter" d="M 2.477554 18.117935 C 8.567298 -3.424176 14.573183 -3.371644 20.505847 18.281015 " stroke="#c23331" stroke-width="4" stroke-opacity="1" stroke-miterlimit="4"/></g></svg>